<mxfile host="app.diagrams.net" modified="2021-09-01T13:23:30.799Z" agent="5.0 (Windows NT 10.0; Win64; x64) AppleWebKit/537.36 (KHTML, like Gecko) Chrome/92.0.4515.159 Safari/537.36" etag="6pLVaRVseRn-EvG8iJNC" version="15.0.4" type="github">
  <diagram id="RJjujmwSsY4MOAHAkKpl" name="第 1 页">
    <mxGraphModel dx="1038" dy="579" grid="1" gridSize="10" guides="1" tooltips="1" connect="1" arrows="1" fold="1" page="1" pageScale="1" pageWidth="827" pageHeight="1169" math="0" shadow="0">
      <root>
        <mxCell id="0" />
        <mxCell id="1" parent="0" />
        <mxCell id="eysjfFIchaWgceSjtY7O-1" value="基础级" style="swimlane;fontStyle=0;childLayout=stackLayout;horizontal=1;startSize=26;fillColor=none;horizontalStack=0;resizeParent=1;resizeParentMax=0;resizeLast=0;collapsible=1;marginBottom=0;fontSize=15;" vertex="1" parent="1">
          <mxGeometry x="80" y="120" width="200" height="250" as="geometry">
            <mxRectangle x="80" y="120" width="70" height="26" as="alternateBounds" />
          </mxGeometry>
        </mxCell>
        <mxCell id="eysjfFIchaWgceSjtY7O-2" value="1.对选手基础能力（问题的理解、分析、基础的编程能力）的考察，不涉及复杂的数据结构及算法，不涉及复杂的问题分析；&#xa;2.代码量较小，对于名校毕业生在没有额外学习及练习的情况下仍能顺利完成；&#xa;3.对标大部分省级编程竞赛的简单档次的题目。" style="text;align=left;verticalAlign=middle;spacingLeft=4;spacingRight=4;overflow=hidden;rotatable=0;points=[[0,0.5],[1,0.5]];portConstraint=eastwest;fontSize=14;whiteSpace=wrap;labelPosition=center;verticalLabelPosition=middle;horizontal=1;spacingBottom=1;" vertex="1" parent="eysjfFIchaWgceSjtY7O-1">
          <mxGeometry y="26" width="200" height="224" as="geometry" />
        </mxCell>
      </root>
    </mxGraphModel>
  </diagram>
</mxfile>
